<svg width="185" height="181" viewBox="0 0 185 181" fill="none" xmlns="http://www.w3.org/2000/svg">
    <circle cx="28.8999" cy="152.016" r="28.8462" transform="rotate(-180 28.8999 152.016)"
        fill="#FF7A00" />
    <circle cx="155.823" cy="90.8623" r="28.8462" transform="rotate(-180 155.823 90.8623)"
        fill="#FF7A00" />
    <circle cx="28.8999" cy="29.7084" r="28.8462" transform="rotate(-180 28.8999 29.7084)"
        fill="#FF7A00" />
    <circle cx="154.669" cy="152.016" r="28.8462" transform="rotate(-180 154.669 152.016)"
        fill="#FF7A00" />
    <circle cx="93.5152" cy="90.8623" r="28.8462" transform="rotate(-180 93.5152 90.8623)"
        fill="#FF7A00" />
    <circle cx="154.669" cy="29.7084" r="28.8462" transform="rotate(-180 154.669 29.7084)"
        fill="#FF7A00" />
    <path
        d="M125.823 152.016C124.092 134.708 114.861 121.439 94.6689 119.708L122.361 92.0162C123.515 111.055 138.515 123.17 154.669 123.17L125.823 152.016Z"
        fill="#FF7A00" />
    <path
        d="M154.02 58.8652C136.678 60.217 124.533 69.5589 122.361 89.7085L95.8227 62.0162C114.882 61.2791 125.458 45.545 125.811 29.395L154.02 58.8652Z"
        fill="#FF7A00" />
    <circle cx="91.2076" cy="152.016" r="28.8462" transform="rotate(-180 91.2076 152.016)"
        fill="#FF7A00" />
    <circle cx="30.0537" cy="90.8623" r="28.8462" transform="rotate(-180 30.0537 90.8623)"
        fill="#FF7A00" />
    <circle cx="91.2076" cy="29.7084" r="28.8462" transform="rotate(-180 91.2076 29.7084)"
        fill="#FF7A00" />
    <path
        d="M62.3613 150.862C60.6305 133.555 52.5536 121.439 32.3613 119.708L58.8998 92.0161C60.0536 111.055 76.2074 123.17 92.3613 123.17L62.3613 150.862Z"
        fill="#FF7A00" />
    <path
        d="M91.2075 58.5546C73.8661 59.9064 61.0718 69.5588 58.8998 89.7084L30.6306 62.0161C49.6898 61.279 62.0081 46.4353 62.3614 30.2853L91.2075 58.5546Z"
        fill="#FF7A00" />
    <path
        d="M138.136 88.2421C138.136 84.7218 140.802 82.3238 144.666 82.3238C148.467 82.3238 151.031 84.4794 151.031 87.6681C151.031 89.6834 149.972 91.4053 146.86 94.3899L143.263 97.821V98.0506H151.312V101.099H138.34V98.5608L144.335 92.6298C146.847 90.1171 147.498 89.1477 147.498 87.9105C147.498 86.3161 146.337 85.2702 144.551 85.2702C142.728 85.2702 141.503 86.4692 141.503 88.2293V88.3186H138.136V88.2421ZM160.908 101.099V97.6169H152.681V94.7088L158.28 82.6937H161.941L156.533 94.4155V94.645H161.023V90.0023H164.25V94.7088H166.749V97.6169H164.301V101.099H160.908ZM174.917 91.0099H171.716L173.132 82.6937H176.614L174.917 91.0099Z"
        fill="white" />
</svg>
    