<svg width="350" height="500" viewBox="0 0 516 516" fill="none" xmlns="http://www.w3.org/2000/svg">
<path d="M114.99 158.722L113.75 160.525L106.144 155.291L104.34 157.913L102.784 156.843L107.633 149.796L109.189 150.866L107.385 153.488L114.99 158.722Z" fill="white"/>
<path d="M125.491 142.155L126.935 143.372L122.418 148.736L113.912 141.573L118.429 136.208L119.873 137.425L116.771 141.109L118.863 142.871L121.782 139.405L123.12 140.532L120.201 143.998L122.388 145.84L125.491 142.155Z" fill="white"/>
<path d="M135.001 132.356C135.823 131.553 135.775 130.479 134.887 129.537L136.475 127.986C138.236 129.789 138.188 131.99 136.38 133.756C134.412 135.678 132.053 135.58 130.007 133.485L128.418 131.859C126.372 129.764 126.329 127.404 128.297 125.481C130.127 123.693 132.285 123.73 134.132 125.599L132.545 127.15C131.596 126.212 130.453 126.122 129.643 126.914C128.678 127.856 128.817 129.013 130.045 130.27L131.633 131.896C132.866 133.159 134.014 133.32 135.001 132.356Z" fill="white"/>
<path d="M151.751 120.063L150.075 121.409L147.132 117.743L144.295 120.02L147.238 123.686L145.561 125.032L138.6 116.36L140.276 115.014L143.113 118.548L145.95 116.271L143.113 112.737L144.79 111.391L151.751 120.063Z" fill="white"/>
<path d="M160.624 113.695L159.037 114.733L152.95 105.426L154.582 104.359L161.826 108.452L161.936 108.38L157.891 102.195L159.477 101.157L165.564 110.464L163.939 111.527L156.663 107.4L156.553 107.472L160.624 113.695Z" fill="white"/>
<path d="M179.214 100.651L180.09 102.324L173.876 105.575L168.721 95.7216L174.935 92.4708L175.81 94.1438L171.542 96.3765L172.81 98.8006L176.825 96.7001L177.636 98.2501L173.621 100.351L174.947 102.884L179.214 100.651Z" fill="white"/>
<path d="M187.855 98.6374L188.81 92.2064L183.688 88.3272L185.917 87.4247L189.481 90.2716L189.581 90.2311L190.167 85.7036L192.282 84.8474L191.221 91.2631L196.434 95.1634L194.277 96.037L190.681 93.3362L190.595 93.3709L189.891 97.8131L187.855 98.6374Z" fill="white"/>
<path d="M209.134 90.9806L207.035 91.6013L204.417 82.748L201.365 83.6506L200.829 81.8401L209.032 79.4141L209.568 81.2247L206.515 82.1273L209.134 90.9806Z" fill="white"/>
<path d="M244.663 82.6161L244.838 84.496L237.856 85.148L236.822 74.0758L243.804 73.4238L243.98 75.3037L239.184 75.7515L239.439 78.4754L243.95 78.0541L244.113 79.7959L239.601 80.2172L239.867 83.0639L244.663 82.6161Z" fill="white"/>
<path d="M253.422 84.0289L256.744 78.44L253.476 72.9086L255.88 72.9185L258.099 76.9042L258.207 76.9047L260.466 72.9374L262.747 72.9468L259.333 78.4814L262.678 84.067L260.35 84.0575L258.047 80.1947L257.954 80.1943L255.619 84.038L253.422 84.0289Z" fill="white"/>
<path d="M272.34 73.4601L276.388 73.8717C278.712 74.108 280.035 75.722 279.798 78.0451C279.565 80.3452 277.898 81.6552 275.513 81.4127L273.75 81.2334L273.393 84.7449L271.215 84.5235L272.34 73.4601ZM274.336 75.4679L273.932 79.4394L275.251 79.5735C276.677 79.7185 277.456 79.1393 277.592 77.8052C277.727 76.4789 277.081 75.747 275.655 75.602L274.336 75.4679Z" fill="white"/>
<path d="M296.75 83.6143C296.141 86.6439 294.199 88.1319 291.584 87.6059C288.97 87.0799 287.755 84.9565 288.364 81.9269L288.7 80.2573C289.31 77.2277 291.252 75.7398 293.866 76.2657C296.48 76.7917 297.696 78.9151 297.086 81.9447L296.75 83.6143ZM291.968 85.702C293.282 85.9665 294.176 85.1167 294.572 83.1523L294.898 81.528C295.294 79.5637 294.798 78.4341 293.483 78.1696C292.169 77.9051 291.274 78.755 290.879 80.7193L290.552 82.3436C290.157 84.3079 290.653 85.4375 291.968 85.702Z" fill="white"/>
<path d="M323.205 88.444C324.02 86.4792 326.063 85.7576 328.22 86.6519C330.341 87.5314 331.273 89.3277 330.535 91.1074C330.069 92.2322 329.08 92.9483 326.652 93.894L323.851 94.9768L323.797 95.1049L328.29 96.9672L327.584 98.6686L320.344 95.6671L320.932 94.2505L325.65 92.3273C327.634 91.5062 328.221 91.1157 328.507 90.4252C328.876 89.5353 328.47 88.683 327.474 88.2698C326.456 87.8478 325.495 88.2336 325.088 89.216L325.067 89.2659L323.188 88.4867L323.205 88.444Z" fill="white"/>
<path d="M344.548 94.3103C346.908 95.5694 347.257 98.123 345.512 101.393C343.766 104.664 341.451 105.795 339.091 104.536C336.739 103.28 336.39 100.727 338.135 97.4564C339.88 94.1862 342.196 93.0549 344.548 94.3103ZM339.894 98.7099L344.453 98.2864C344.711 97.1314 344.464 96.318 343.696 95.908C342.533 95.2876 341.241 96.1875 340.025 98.4651L339.894 98.7099ZM343.745 100.153L339.186 100.577C338.932 101.725 339.183 102.532 339.944 102.938C341.113 103.562 342.402 102.669 343.622 100.385L343.745 100.153Z" fill="white"/>
<path d="M354.695 104.287C355.874 102.516 358.018 102.203 359.961 103.497C361.873 104.77 362.44 106.713 361.372 108.316C360.698 109.33 359.589 109.841 357.024 110.3L354.066 110.821L353.989 110.937L358.037 113.632L357.016 115.165L350.492 110.821L351.342 109.544L356.343 108.569C358.448 108.147 359.1 107.877 359.514 107.255C360.048 106.453 359.815 105.539 358.917 104.941C358 104.33 356.982 104.523 356.393 105.408L356.363 105.453L354.67 104.325L354.695 104.287Z" fill="white"/>
<path d="M367.999 123.522L369.33 121.892L365.479 118.749L366.591 117.388L373.802 113.904L375.516 115.302L368.505 118.722L368.418 118.83L370.519 120.545L372.293 118.372L373.803 119.605L372.005 121.808L373.175 122.763L372.064 124.124L370.918 123.189L369.587 124.818L367.999 123.522Z" fill="white"/>
<path d="M398.966 163.126L397.792 161.39L411.493 152.127L412.667 153.864L398.966 163.126Z" fill="#FF7A00"/>
<path d="M432.904 198.545L433.968 201.951C434.896 204.922 433.586 207.035 430.151 208.108C426.591 209.221 424.288 208.261 423.353 205.267L422.289 201.861L432.904 198.545ZM431.754 201.197L424.744 203.387L425.066 204.417C425.64 206.256 427.006 206.75 429.448 205.987C431.787 205.256 432.641 204.036 432.076 202.227L431.754 201.197Z" fill="white"/>
<path d="M428.442 225.289L427.054 218.635L428.895 218.251L429.365 220.507L436.57 219.004L436.1 216.749L437.94 216.365L439.328 223.019L437.487 223.403L437.017 221.147L429.812 222.649L430.282 224.905L428.442 225.289Z" fill="white"/>
<path d="M433.071 234.176L433.294 236.229C432.347 236.433 431.881 237.274 432.017 238.531C432.147 239.726 432.805 240.422 433.701 240.324C434.452 240.243 434.797 239.709 434.941 238.399L435.084 237.22C435.319 235.172 436.269 234.076 437.909 233.898C439.97 233.674 441.446 235.056 441.706 237.446C441.957 239.76 440.832 241.456 438.863 241.74L438.639 239.686C439.542 239.503 440.025 238.745 439.908 237.665C439.789 236.569 439.201 235.943 438.374 236.033C437.592 236.118 437.217 236.655 437.086 237.879L436.949 239.041C436.706 241.23 435.85 242.269 434.157 242.453C431.974 242.691 430.486 241.271 430.205 238.689C429.933 236.184 431.011 234.477 433.071 234.176Z" fill="white"/>
<path d="M433.214 255.715C433.226 256.864 434.036 257.571 435.331 257.58L435.355 259.799C432.835 259.827 431.277 258.273 431.249 255.745C431.218 252.994 432.919 251.357 435.847 251.324L438.12 251.299C441.048 251.266 442.785 252.865 442.815 255.616C442.844 258.175 441.327 259.71 438.7 259.755L438.675 257.535C440.008 257.497 440.863 256.732 440.85 255.6C440.835 254.251 439.902 253.552 438.145 253.572L435.872 253.597C434.107 253.617 433.198 254.336 433.214 255.715Z" fill="white"/>
<path d="M435.197 277.03C432.118 276.764 430.422 275.001 430.651 272.345C430.88 269.688 432.854 268.242 435.933 268.508L437.629 268.654C440.708 268.92 442.405 270.683 442.175 273.339C441.946 275.996 439.973 277.442 436.894 277.177L435.197 277.03ZM432.586 272.512C432.47 273.848 433.415 274.641 435.411 274.813L437.062 274.956C439.058 275.128 440.125 274.508 440.241 273.172C440.356 271.836 439.411 271.043 437.415 270.871L435.764 270.729C433.768 270.556 432.701 271.176 432.586 272.512Z" fill="white"/>
<path d="M430.764 289.621L439.131 293.532L438.732 295.683L428.407 290.375L428.879 287.829L440.421 286.576L439.99 288.902L430.783 289.523L430.764 289.621Z" fill="white"/>
<path d="M425.598 309.585L423.783 309.063L425.725 302.324L436.411 305.403L434.469 312.142L432.655 311.619L433.988 306.991L431.36 306.233L430.105 310.587L428.424 310.103L429.679 305.749L426.931 304.957L425.598 309.585Z" fill="white"/>
<path d="M428.637 323.496L425.328 322.183L424.756 323.622C424.299 324.776 424.649 325.711 425.695 326.126C426.719 326.532 427.602 326.103 428.057 324.957L428.637 323.496ZM423.181 323.038L423.766 321.563L419.963 320.053L420.767 318.026L431.103 322.128L429.614 325.881C428.721 328.131 426.929 329.011 424.881 328.198C423.541 327.667 422.705 326.514 422.707 325.214L417.745 325.641L418.655 323.349L423.181 323.038Z" fill="white"/>
<path d="M390.652 363.838L391.952 362.194L404.921 372.457L403.62 374.101L390.652 363.838Z" fill="#FF7A00"/>
<path d="M354.752 401.979L360.325 398.087L361.401 399.628L359.512 400.948L363.727 406.981L365.616 405.662L366.692 407.204L361.12 411.096L360.043 409.554L361.932 408.235L357.718 402.201L355.829 403.521L354.752 401.979Z" fill="white"/>
<path d="M345.007 408.067L346.659 407.137L352.112 416.829L350.413 417.785L343.458 413.218L343.344 413.283L346.967 419.724L345.315 420.653L339.862 410.961L341.555 410.009L348.54 414.613L348.654 414.548L345.007 408.067Z" fill="white"/>
<path d="M330.009 415.829L331.744 415.064L336.23 425.24L334.446 426.026L327.967 420.806L327.847 420.859L330.828 427.621L329.094 428.386L324.608 418.211L326.385 417.427L332.889 422.687L333.009 422.634L330.009 415.829Z" fill="white"/>
<path d="M309.835 428.536C308.869 425.601 309.823 423.348 312.355 422.514C314.888 421.68 316.994 422.926 317.96 425.861L318.493 427.479C319.459 430.414 318.505 432.667 315.972 433.501C313.44 434.335 311.334 433.089 310.367 430.154L309.835 428.536ZM312.963 424.358C311.689 424.778 311.331 425.958 311.958 427.862L312.476 429.435C313.102 431.339 314.091 432.076 315.365 431.657C316.639 431.237 316.997 430.057 316.37 428.153L315.852 426.58C315.225 424.676 314.236 423.939 312.963 424.358Z" fill="white"/>
<path d="M296.515 429.412L296.21 438.642L294.074 439.121L294.895 427.54L297.421 426.973L303.113 437.093L300.804 437.611L296.613 429.39L296.515 429.412Z" fill="white"/>
<path d="M281.359 434.425L278.95 434.724L280.653 439.055L280.752 439.043L281.359 434.425ZM277.28 430.466L278.303 433.08L281.584 432.673L281.952 429.886L284.124 429.616L282.184 441.063L279.614 441.382L274.932 430.758L277.28 430.466Z" fill="white"/>
<path d="M261.598 431.517L263.786 431.46L264.029 440.689L267.211 440.605L267.261 442.492L258.709 442.718L258.66 440.83L261.841 440.747L261.598 431.517Z" fill="white"/>
<path d="M242.024 432.774L242.158 430.891L249.153 431.388L248.366 442.48L241.37 441.984L241.504 440.1L246.308 440.441L246.502 437.712L241.982 437.392L242.106 435.647L246.626 435.967L246.828 433.115L242.024 432.774Z" fill="white"/>
<path d="M196.807 416.549L198.767 417.293L192.902 432.756L190.942 432.012L196.807 416.549Z" fill="#FF7A00"/>
<path d="M151.044 397.15C150.133 396.452 149.076 396.652 148.27 397.665L146.509 396.314C148.042 394.315 150.228 394.048 152.234 395.586C154.417 397.261 154.655 399.609 152.873 401.933L151.49 403.737C149.708 406.061 147.378 406.44 145.195 404.766C143.164 403.209 142.893 401.068 144.48 398.973L146.241 400.324C145.448 401.396 145.522 402.54 146.421 403.23C147.491 404.05 148.617 403.748 149.686 402.354L151.069 400.549C152.143 399.149 152.139 397.99 151.044 397.15Z" fill="white"/>
<path d="M133.051 385.554C135.16 383.295 137.595 383.049 139.543 384.869C141.492 386.69 141.411 389.135 139.302 391.393L138.139 392.638C136.029 394.896 133.595 395.142 131.646 393.322C129.698 391.502 129.778 389.056 131.888 386.798L133.051 385.554ZM138.217 386.288C137.238 385.373 136.03 385.627 134.663 387.091L133.531 388.302C132.164 389.766 131.992 390.987 132.972 391.903C133.952 392.818 135.159 392.565 136.527 391.1L137.658 389.89C139.026 388.426 139.197 387.204 138.217 386.288Z" fill="white"/>
<path d="M123.545 371.268L124.996 369.989L129.647 375.269L121.303 382.62L119.871 380.995L126.764 374.923L123.545 371.268Z" fill="white"/>
<path d="M113.165 357.707L114.733 356.576L118.85 362.282L109.831 368.788L108.564 367.032L116.014 361.657L113.165 357.707Z" fill="white"/>
<path d="M104.628 348.981L103.405 346.883L100.092 350.152L100.143 350.239L104.628 348.981ZM106.663 343.673L104.662 345.642L106.327 348.499L109.034 347.741L110.136 349.632L98.8485 352.349L97.5446 350.112L105.472 341.629L106.663 343.673Z" fill="white"/>
<path d="M99.8097 330.278L101.559 334.088L91.4534 338.728L89.7457 335.01C88.8548 333.07 89.2562 331.469 90.8319 330.746C91.9245 330.244 93.1957 330.593 93.8392 331.57L93.9582 331.515C93.4388 330.125 94.0137 328.699 95.3233 328.098C97.0951 327.284 98.8159 328.114 99.8097 330.278ZM92.0931 336.077L94.7193 334.871L94.1919 333.723C93.687 332.623 92.9213 332.212 92.1089 332.585C91.2405 332.983 91.0382 333.78 91.527 334.845L92.0931 336.077ZM99.1034 332.858L98.5309 331.611C97.8942 330.225 97.1226 329.782 96.1001 330.251C95.1407 330.692 94.9829 331.604 95.61 332.97L96.176 334.202L99.1034 332.858Z" fill="white"/>
<path d="M87.8103 312.505C90.7306 311.495 92.998 312.414 93.8703 314.934C94.7426 317.453 93.529 319.578 90.6087 320.589L88.9993 321.146C86.079 322.157 83.8116 321.238 82.9393 318.718C82.067 316.198 83.2806 314.074 86.2009 313.063L87.8103 312.505ZM92.0351 315.569C91.5964 314.302 90.4105 313.962 88.5171 314.618L86.9513 315.16C85.0579 315.815 84.3358 316.815 84.7745 318.083C85.2132 319.35 86.3991 319.689 88.2925 319.034L89.8583 318.492C91.7517 317.836 92.4738 316.836 92.0351 315.569Z" fill="white"/>
<path d="M80.1807 302.544L83.6423 301.712L83.2801 300.206C82.9899 298.999 82.165 298.437 81.0711 298.7C79.9996 298.958 79.5246 299.817 79.813 301.016L80.1807 302.544ZM84.9045 299.775L85.2757 301.319L89.2544 300.362L89.7644 302.482L78.9524 305.083L78.008 301.157C77.4421 298.804 78.3998 297.052 80.5427 296.536C81.9439 296.199 83.2912 296.66 84.0387 297.724L87.8486 294.517L88.4253 296.915L84.9045 299.775Z" fill="white"/>
<path d="M81.4889 284.122L81.153 281.718L76.848 283.487L76.8619 283.586L81.4889 284.122ZM85.3848 279.983L82.7866 281.047L83.2441 284.321L86.0364 284.646L86.3393 286.814L74.864 285.048L74.5057 282.484L85.0574 277.64L85.3848 279.983Z" fill="white"/>
<path d="M84.0943 264.32L84.1854 266.507L74.961 266.891L75.0934 270.071L73.2069 270.149L72.8511 261.602L74.7376 261.524L74.87 264.704L84.0943 264.32Z" fill="white"/>
<path d="M82.5393 244.767L84.4245 244.872L84.0347 251.874L72.9314 251.256L73.3212 244.254L75.2064 244.359L74.9387 249.168L77.6702 249.32L77.9221 244.796L79.6688 244.893L79.4169 249.417L82.2716 249.576L82.5393 244.767Z" fill="white"/>
<path d="M98.0731 199.308L97.3597 201.279L81.8089 195.65L82.5223 193.679L98.0731 199.308Z" fill="#FF7A00"/>
<circle cx="255.041" cy="257.862" r="158" stroke="#FF7A00" stroke-width="4"/>
<circle cx="255.041" cy="257.862" r="202" stroke="#FF7A00" stroke-width="4"/>
<circle cx="192.272" cy="319.016" r="28.8462" transform="rotate(-180 192.272 319.016)" fill="white"/>
<circle cx="319.195" cy="257.863" r="28.8462" transform="rotate(-180 319.195 257.863)" fill="white"/>
<circle cx="192.272" cy="196.709" r="28.8462" transform="rotate(-180 192.272 196.709)" fill="white"/>
<circle cx="318.041" cy="319.016" r="28.8462" transform="rotate(-180 318.041 319.016)" fill="white"/>
<circle cx="256.887" cy="257.863" r="28.8462" transform="rotate(-180 256.887 257.863)" fill="white"/>
<circle cx="318.041" cy="196.709" r="28.8462" transform="rotate(-180 318.041 196.709)" fill="white"/>
<path d="M289.195 319.016C287.464 301.709 278.233 288.439 258.041 286.709L285.733 259.016C286.887 278.055 301.887 290.17 318.041 290.17L289.195 319.016Z" fill="white"/>
<path d="M317.392 225.865C300.05 227.217 287.905 236.559 285.733 256.709L259.195 229.016C278.254 228.279 288.83 212.545 289.183 196.395L317.392 225.865Z" fill="white"/>
<circle cx="254.58" cy="319.016" r="28.8462" transform="rotate(-180 254.58 319.016)" fill="white"/>
<circle cx="193.426" cy="257.863" r="28.8462" transform="rotate(-180 193.426 257.863)" fill="white"/>
<circle cx="254.579" cy="196.709" r="28.8462" transform="rotate(-180 254.579 196.709)" fill="white"/>
<path d="M225.733 317.862C224.003 300.555 215.926 288.439 195.733 286.709L222.272 259.016C223.426 278.055 239.579 290.17 255.733 290.17L225.733 317.862Z" fill="white"/>
<path d="M254.579 225.555C237.238 226.907 224.444 236.559 222.272 256.709L194.002 229.016C213.062 228.279 225.38 213.436 225.733 197.286L254.579 225.555Z" fill="white"/>
<path d="M301.508 255.242C301.508 251.722 304.174 249.324 308.038 249.324C311.839 249.324 314.403 251.48 314.403 254.668C314.403 256.684 313.344 258.405 310.232 261.39L306.635 264.821V265.051H314.684V268.099H301.712V265.561L307.707 259.63C310.219 257.117 310.87 256.148 310.87 254.911C310.87 253.316 309.709 252.27 307.924 252.27C306.1 252.27 304.875 253.469 304.875 255.229V255.319H301.508V255.242ZM324.28 268.099V264.617H316.053V261.709L321.652 249.694H325.313L319.905 261.416V261.645H324.395V257.002H327.622V261.709H330.122V264.617H327.673V268.099H324.28ZM338.289 258.01H335.088L336.504 249.694H339.986L338.289 258.01Z" fill="#FF7A00"/>
</svg>
